<svg xmlns="http://www.w3.org/2000/svg" viewBox="0 0 559.78 588.12">
    <g id="Layer_1-2" data-name="Layer 1">
        <path fill="white"
            d="M254.11,319.24c-.56-.19-1,.16-1.46.39-7.18,3.65-14.5,6.91-21.94,9.91A231.18,231.18,0,0,1,199.32,340a83.12,83.12,0,0,1-11.07,2,75.17,75.17,0,0,1-12,.2,106.57,106.57,0,0,1-13.65-1.74,238.76,238.76,0,0,1-37.17-10.69c-11.49-4.16-22.92-8.52-34.36-12.84-13.4-5.05-26.78-10.12-40.33-14.67-5.36-1.8-10.75-3.49-16.12-5.24-.42-.14-.83-.32-1.26-.48.16-.57.54-.35.79-.37,4.64-.33,9.28-.63,13.92-1,3.16-.24,6.31-.46,9.46-.82A92.57,92.57,0,0,1,67.79,294a63.68,63.68,0,0,1,25.68,5.43c3.71,1.61,7.31,3.47,11,5.2a147.53,147.53,0,0,0,27.79,10.19,89.16,89.16,0,0,0,11.46,2,57,57,0,0,0,9.68.25c11.46-.68,21.49-4.91,29.7-13.65a60.21,60.21,0,0,0,10-14.61c1.36-2.73,2.52-5.57,3.73-8.38.48-1.13.3-1.61-.75-2.14a6.72,6.72,0,0,0-4.16-.61c-1.08.17-2.16.41-3.24.59a12.14,12.14,0,0,1-1.42.07,5.4,5.4,0,0,1,.35-2.65c.36-1.1.73-2.2,1.08-3.31a2.06,2.06,0,0,0,0-1.72l-9,.78a3.5,3.5,0,0,1,.18-2.25c.31-.83.63-1.66.94-2.48a3.76,3.76,0,0,0,.24-2.52c-1.16-.17-2.36-.34-3.55-.53l-3.66-.59a4.13,4.13,0,0,1,.26-2.66c.35-.81.72-1.61,1.08-2.42a7.46,7.46,0,0,0,.74-3.42c-1.61-.39-3.17-.76-4.72-1.16s-3.12-.81-4.75-1.24c-.24-1.07.32-2,.66-2.9s.74-1.9,1.07-2.86a3.75,3.75,0,0,0,.08-.89c-2.44-1.31-5.21-1.57-7.75-2.81a5.1,5.1,0,0,1,.46-1.18c.67-.93,1.39-1.81,2.1-2.7a5.36,5.36,0,0,0,1.31-2.29,8.27,8.27,0,0,0-3.34-1.06c-1.45-.31-2.92-.55-4.37-.87a8.27,8.27,0,0,1-1.42-.6c.14-2.23,1.51-4,1.51-6.22a4.92,4.92,0,0,0-3.68-.35,13.85,13.85,0,0,1-4.32.1c.31-1.14.59-2.17.86-3.2s.5-2.1.8-3.32a2.59,2.59,0,0,0-2.52-.67c-.94.23-1.86.57-2.79.85a4,4,0,0,1-3.79-.34c1.44-2.36,1.79-5.13,2.83-7.55-.27-.56-.7-.47-1.06-.46-1.81.05-3.62.12-5.42.19a9.67,9.67,0,0,1-4.11-.36c.66-2.41,2.38-4.23,3-6.59a7.33,7.33,0,0,0-4.25-.17c-1.51.36-3,.76-4.51,1.19a14.29,14.29,0,0,1-5,.35,2.64,2.64,0,0,1-.62-.25c.23-.6.46-1.15.67-1.7a10.56,10.56,0,0,0,.77-4c0-1.21-.3-1.5-1.39-1.41s-2.45.23-3.67.38l-7.88,1a6.82,6.82,0,0,1-1.35.06c-1.16-.1-2.31-.24-3.44-.37-.19-.52.15-.61.42-.77,1.18-.71,2.38-1.38,3.52-2.16a7.33,7.33,0,0,0,2.23-2.55,2.73,2.73,0,0,0,.42-1.87,4.35,4.35,0,0,0-1-.33,21,21,0,0,0-6.16.54c-2.53.54-5,1.17-7.59,1.63a24.82,24.82,0,0,1-7.08.48c-.3-.44,0-.68.19-.9,1-1,2-1.94,3-3a8.81,8.81,0,0,0,2-3c.1-.3.13-.63.24-1.13l-2.79.48a22.4,22.4,0,0,1-8.08.3,9,9,0,0,1-4.76-2.36,4.45,4.45,0,0,1,.78-.48c1.46-.56,2.94-1.05,4.37-1.66a6.69,6.69,0,0,0,1.79-1.2c1-.93,1.14-1.36,1-3.19a11.07,11.07,0,0,0-4-1.32,4.82,4.82,0,0,0-2.28.25,24.8,24.8,0,0,1-5.89,1.11,9.11,9.11,0,0,1-1.16.06,38.12,38.12,0,0,1-14-2.79,17.92,17.92,0,0,1-6-4,5.43,5.43,0,0,1-.61-.89c.36-.52.78-.4,1.14-.4,3.42,0,6.84,0,10.27.25A42.39,42.39,0,0,0,76.05,172a8.41,8.41,0,0,0,3.28-1.18A2.7,2.7,0,0,0,80.7,168a7.61,7.61,0,0,0-2.62-.58q-5.6-.56-11.18-1.17c-2.57-.28-5.14-.54-7.69-.92-5.06-.75-10.1-1.6-14.86-3.71a14.75,14.75,0,0,1-4.15-2.61,7,7,0,0,1-2.55-6.41,7.07,7.07,0,0,1,1.09-.33,7.59,7.59,0,0,1,1.35,0c3.75.14,7.48.43,11.2.94,4.73.65,9.44,1.62,14.25,1.49a15,15,0,0,0,3.83-.49,8.16,8.16,0,0,0,3.72-2.13,7.41,7.41,0,0,0,.68-1.07,4.64,4.64,0,0,0-1-.39c-3.07-.47-6.15-.85-9.2-1.37a118.19,118.19,0,0,1-21.27-5.38,39,39,0,0,1-9.9-5.13A18.27,18.27,0,0,1,29,135.42a8.51,8.51,0,0,1-1.85-3.48c.44-.58.9-.34,1.31-.25a103.94,103.94,0,0,1,10.47,3c3.58,1.18,7.16,2.33,10.81,3.22a49.59,49.59,0,0,0,15.4,1c.21-.52-.14-.6-.43-.71-1.78-.62-3.58-1.19-5.34-1.86a74.44,74.44,0,0,1-18.84-10.46,63.94,63.94,0,0,1-13.59-14.3c-.38-.55-.71-1.14-1.05-1.72a.83.83,0,0,1,0-.39,10.93,10.93,0,0,1,4.34,0,30.71,30.71,0,0,1,11.08,4.76c2.76,1.77,5.48,3.64,8.24,5.42a42.31,42.31,0,0,0,13.15,5.91,38.59,38.59,0,0,0,14.24.75c.52-.06,1-.06,1.55-.14s1.11-.24,1.75-.38c-.47-.76-1.15-.88-1.71-1.17-3.84-2-7.71-3.89-11.52-5.92a122.58,122.58,0,0,1-14.74-9.11,46.85,46.85,0,0,1-7.18-6.27,17.37,17.37,0,0,1-2.75-4,5.91,5.91,0,0,1-.74-4.06c.49.25.9.43,1.28.65,4.11,2.32,8.17,4.74,12.32,7a124.11,124.11,0,0,0,20.1,8.64A119.41,119.41,0,0,0,88.61,115a6.72,6.72,0,0,0,1.2,0,3.8,3.8,0,0,0-1.22-1.74c-1.6-1.49-3.21-3-4.86-4.42a96.36,96.36,0,0,1-8.26-7.79,25.31,25.31,0,0,1-3.75-5.23,3.49,3.49,0,0,1-.31-.75.9.9,0,0,1,0-.39c.31-.29.6-.06.9,0,4.5,1.48,9,3.05,13.52,4.4,6.65,2,13.32,3.87,20,5.71,7.18,2,14.37,4,21.59,5.8,6.78,1.72,13.6,3.26,20.41,4.84,9.77,2.29,19.57,4.47,29.17,7.49a57.47,57.47,0,0,1,9.81,3.83,58.88,58.88,0,0,1,12,8.61,125.74,125.74,0,0,1,14.63,16.18c5.24,6.73,10,13.85,14.94,20.81,1.48,2.08,3,4.12,4.58,6.13a24.17,24.17,0,0,0,2.16,2.36,4.35,4.35,0,0,0,2.27,1.33,4.66,4.66,0,0,0,.2-1.43,28.21,28.21,0,0,0-.81-3c-.23-.71-.54-1.39-.78-2.1a2.86,2.86,0,0,1,0-2.15,7.1,7.1,0,0,1,1.21-.2c.45,0,.89.16,1.34.19,1,.06,1.41-.29,1.42-1.44a10.63,10.63,0,0,0-.25-2c-.14-.66-.37-1.31-.59-2.09a7.84,7.84,0,0,1,1.25-.51,6.53,6.53,0,0,0,2.27-.72c-.44-1.74-.89-3.45-1.34-5.21,1-1,2.4-1,3.43-1.91.12-2-1-3.67-1.08-5.62.89-1.17,2.56-.38,3.55-1.63-.06-2-.47-4.06-.51-6.27l2.77-.3a5.31,5.31,0,0,0-.9-3.14c-.4-.7-.87-1.36-1.28-2.06a3.85,3.85,0,0,1-.62-2.63l1.88-1a3.14,3.14,0,0,0-.44-2.51,7.88,7.88,0,0,0-2-2.23,6.77,6.77,0,0,1-2.3-3c-.08-.25-.13-.51-.21-.86,1.19-.61,2.47.16,3.62-.42a4,4,0,0,0-.75-2.52,22.85,22.85,0,0,0-1.52-2.13c-.65-.86-1.35-1.67-2-2.52a8.38,8.38,0,0,1-1.65-3.42c.47-.6,1-.3,1.46-.24,1,.14,2,.34,3.07.45a4.19,4.19,0,0,0,1.07-.2,1.82,1.82,0,0,0-.6-1.55c-1-1.28-2-2.52-3-3.78a28.61,28.61,0,0,1-4.5-7.17c-.14-.36-.22-.75-.4-1.4,1,.52,1.81.95,2.61,1.31a7.47,7.47,0,0,0,2.84.65c-.74-.94-1.38-1.68-1.93-2.49a19.06,19.06,0,0,1-1.53-2.62,13.31,13.31,0,0,1-1-2.69,6.51,6.51,0,0,1-.38-3.1c1.81,1.27,3.23,3.15,5.76,3a8.63,8.63,0,0,0-.47-1.24c-1-1.82-2.16-3.59-3.14-5.44-1.07-2-2.09-4.11-3-6.23a14.63,14.63,0,0,1-1.3-6.8,5.62,5.62,0,0,1,1.17-3.35,5.13,5.13,0,0,1,.42.73c.26.78.47,1.57.75,2.34a18.3,18.3,0,0,0,8.34,9.92,7.94,7.94,0,0,0,1.26.47l.39.06-.21-.24c-.91-1.82-1.8-3.64-2.72-5.44a112.84,112.84,0,0,1-5.55-12A31.26,31.26,0,0,1,239.11,64a9.36,9.36,0,0,1,.32-4.67A4.85,4.85,0,0,1,242,56.41a6,6,0,0,1,1.18,2c1.78,3.36,3.45,6.77,5.33,10.06,1.34,2.34,2.92,4.53,4.44,6.74a5.67,5.67,0,0,0,1.95,2,9.2,9.2,0,0,0-.22-1.32c-.9-2.79-1.84-5.57-2.72-8.37a98.6,98.6,0,0,1-3.1-12.11,44.56,44.56,0,0,1-.52-10.88,27.86,27.86,0,0,1,.46-2.81c.57.23.57.75.7,1.2,1.16,3.86,2.28,7.73,3.49,11.57a55.75,55.75,0,0,0,3.49,8.71c.59,1.14,1.28,2.23,1.94,3.32.12.21.35.34.67.65-.31-2.53-.57-4.84-.87-7.14a87.51,87.51,0,0,1-.54-16.66,25.91,25.91,0,0,1,1.47-7.22,13.1,13.1,0,0,1,2.36-4.37c.14,0,.22,0,.26,0a.26.26,0,0,1,.09.17c.12.89.27,1.77.35,2.65a126.1,126.1,0,0,0,5,26.38,63.09,63.09,0,0,0,4,9.81,6,6,0,0,0,.42.65c.43-.11.27-.44.25-.64-.32-2.79-.73-5.58-1-8.38a86.32,86.32,0,0,1-.45-13,31.66,31.66,0,0,1,1.42-8.69,9,9,0,0,1,2.45-3.89,2.22,2.22,0,0,1,.49-.33,1.23,1.23,0,0,1,.39,0c.35.3.2.73.2,1.11,0,2.61-.12,5.23,0,7.83A57.47,57.47,0,0,0,281.79,70c.31.6.67,1.17,1,1.74.66-.18.37-.69.38-1a51.91,51.91,0,0,1,1.6-11.79,21.37,21.37,0,0,1,1.94-5.28c.15,0,.23,0,.26,0a.47.47,0,0,1,.08.19c.12.74.26,1.48.35,2.23A127.57,127.57,0,0,0,291,74.4a69.32,69.32,0,0,0,7.12,17.08,103.63,103.63,0,0,1,12.37,31,91.5,91.5,0,0,1,1.89,13.22c.18,2.54.31,5.07.25,7.61a95.48,95.48,0,0,1-9.44,39.38,31.87,31.87,0,0,0-3,11.4,68.7,68.7,0,0,0,.38,11.3c0,.61.12,1.22.19,1.83a10,10,0,0,0,3.36,1,207.21,207.21,0,0,1,24.06,7.11A76.84,76.84,0,0,1,345.24,224a39.21,39.21,0,0,1,10.56,10.5,31,31,0,0,1,4.8,12,23.13,23.13,0,0,1,.06,5.13c-.13,2.19-.37,4.38-.64,6.55a43,43,0,0,1-4.27,14.47,25.66,25.66,0,0,1-11,11.28c-.63.34-1.29.6-1.86.85-.57-.3-.39-.76-.44-1.13-.16-1-.24-2.05-.46-3.05a11.38,11.38,0,0,0-6.76-8.43,18.53,18.53,0,0,0-7-1.65c-1.49,0-3,0-4.46-.09a5.69,5.69,0,0,0-3.65,1.1,112.32,112.32,0,0,0-9.94,7.53,124,124,0,0,0-13.35,13.47,94.84,94.84,0,0,0-12.58,18.25,37.32,37.32,0,0,0-3.58,9.74,13,13,0,0,0,.2,6.11,5.55,5.55,0,0,0,5.54,4.53,16.78,16.78,0,0,0,5-.69A56.82,56.82,0,0,0,302,326.33c3.52-1.73,7-3.55,10.5-5.32q6.21-3.13,12.44-6.25c.29-.15.59-.29.88-.42,4.67-2.16,6.59-2.51,11.68-2.16a10.44,10.44,0,0,1,3.93,1.05,6.88,6.88,0,0,1,3.89,6.15,22.64,22.64,0,0,1-1.42,9.17c-.22-.94-.37-1.61-.53-2.27a8.82,8.82,0,0,0-2.52-4.55c-2.17-2-4.2-2-6.37-.47a7.84,7.84,0,0,0-2.26,2.78,3,3,0,0,0-.22,1.59q.27,3.39.64,6.76a58.3,58.3,0,0,1,.59,9.24,16.93,16.93,0,0,1-2.78,9.07,7.79,7.79,0,0,1-2.57,2.48,10.05,10.05,0,0,1,.13-2.64,17.59,17.59,0,0,0-.65-7.33,8.47,8.47,0,0,0-7.81-6.35,46.28,46.28,0,0,0-16.82,2.33,35.89,35.89,0,0,0-18.55,14.53A71.45,71.45,0,0,0,277,368.06c-.22.57-.46,1.12-.68,1.64-5.21-.38-24.23-4.94-37.13-9.35-10.55-3.59-19.27-7.05-21.09-8.38.52-.34,1-.67,1.49-1a141,141,0,0,0,20.67-15.27,81.16,81.16,0,0,0,12.6-14.23,4.78,4.78,0,0,0,1.22-2.28.52.52,0,0,0,.16-.06s0-.08,0-.12Zm82.82-76.11c0,.19-.06.28,0,.33a6.77,6.77,0,0,0,.43.66,20.83,20.83,0,0,1,3.92,8.16c.2.87.4,1.74.67,2.58a4.71,4.71,0,0,0,1.27,2.41,12.74,12.74,0,0,0,2.92-5.09c.79-2.81.21-4.8-2-6.48A14.13,14.13,0,0,0,336.93,243.13Z" />
        <path fill="white"
            d="M119.11,423a11.9,11.9,0,0,1,1.22-.13q4.45,0,8.91.08c.11,0,.22.12.46.27a12.63,12.63,0,0,1,.14,1.48c0,2.89,0,5.78,0,8.67,0,10.17.12,20.35,0,30.52-.08,5.41,2.34,8.95,6.46,11.54a17.47,17.47,0,0,0,7.33,2.51,21.94,21.94,0,0,0,11.8-1.52,15.45,15.45,0,0,0,5.76-4.43,14,14,0,0,0,2.87-8.56c0-1.44,0-2.89,0-4.33V425.28a6.4,6.4,0,0,1,.15-2.19,57.38,57.38,0,0,1,10.22-.08,6,6,0,0,1,.19,1.09c0,2.27,0,4.54,0,6.81,0,9.48,0,19,0,28.46a19.49,19.49,0,0,0,.39,3.88c.18.93.33,1.88.48,2.83a12.81,12.81,0,0,0,5.93,9,18.79,18.79,0,0,0,9.17,3A22.09,22.09,0,0,0,201,476.45a15.21,15.21,0,0,0,5.78-4.39,12.26,12.26,0,0,0,2.75-7.53c0-.69,0-1.38,0-2.06v-53c0-.82,0-1.64,0-2.51a3,3,0,0,1,.78-.26h9.12a3.35,3.35,0,0,1,.66.18,10.64,10.64,0,0,1,.13,1.15c0,1.58,0,3.16,0,4.74,0,17.05.06,34.1,0,51.15a9.3,9.3,0,0,0,4,8.18,25.8,25.8,0,0,0,7.89,3.84,46.14,46.14,0,0,0,15.9,2,28.29,28.29,0,0,0,8.56-1.6,12.26,12.26,0,0,0,5.11-3.23,6.65,6.65,0,0,0,1.83-4.41c0-.83,0-1.65,0-2.48q0-28.46,0-56.92a4,4,0,0,1,.29-2.38,53.49,53.49,0,0,1,10.31.09c0,.5.1,1,.11,1.57q0,30,0,60a18.26,18.26,0,0,1-6.61,14.29,27,27,0,0,1-12.07,5.81,38.79,38.79,0,0,1-13.88.52A37.59,37.59,0,0,1,230.54,486a29.46,29.46,0,0,1-10.65-8.39l-.72-.87c-.7,0-1,.54-1.29.92a30.46,30.46,0,0,1-14,9.67c-9.74,3.1-18.65,1.17-26.65-5.43-1.63-1.34-3-3-4.65-4.55-.24.23-.57.52-.87.85a31.19,31.19,0,0,1-14.54,9.45,26.56,26.56,0,0,1-22.38-3.32c-1.54-1-2.92-2.26-4.38-3.39a7.64,7.64,0,0,0-1.67-1.33,4,4,0,0,0-.93,2.05,65.19,65.19,0,0,1-9.12,18.09c-8,11-18.33,18-31.13,20.87a44.9,44.9,0,0,1-12.91,1.07A46,46,0,0,1,46.48,510a51.21,51.21,0,0,1-14.26-22A69.8,69.8,0,0,1,29,473.59a46.08,46.08,0,0,1-.29-5.74q0-21.24,0-42.49a5.5,5.5,0,0,1,.2-2.32,26,26,0,0,1,5.15-.17c1.67,0,3.34,0,5.09,0a8.64,8.64,0,0,1,.28,1.26c0,.54,0,1.1,0,1.65q0,21.85,0,43.72c0,1-.14,2-.2,3.06a5.93,5.93,0,0,0,0,1,49.64,49.64,0,0,0,2.9,14.23,41.88,41.88,0,0,0,13.4,18.31,40.69,40.69,0,0,0,19.14,8.43,34.53,34.53,0,0,0,26.77-6.29,38.5,38.5,0,0,0,12.45-16,60.76,60.76,0,0,0,4.47-16.57,86.64,86.64,0,0,0,.75-11.5c0-12.92,0-25.85,0-38.77Z" />
        <path fill="white"
            d="M301.37,376.35a63.26,63.26,0,0,1,10.39,0c0,.35.12.74.14,1.13,0,.62,0,1.24,0,1.85v87.44a14.55,14.55,0,0,0,.26,3.48,8.67,8.67,0,0,0,8,6.93c.32,0,.64,0,1,0h44c.5,0,1,0,1.46-.05.18-.61-.22-.84-.44-1.14a55.18,55.18,0,0,1-6.72-11.05,44.82,44.82,0,0,1-3.76-13.78c-1.33-13.27,2.45-24.67,11.12-34.24a35.61,35.61,0,0,1,19.84-11.3,33.28,33.28,0,0,1,11-.31,40.16,40.16,0,0,1,9.74,2.59c1,.38,1.9.85,2.85,1.28.3,1.4-.19,2.66-.21,3.95s-.25,2.44-.38,3.64c-.73.19-1-.4-1.34-.74a26.49,26.49,0,0,0-7.25-5.09,17,17,0,0,0-7.92-1.67,19.12,19.12,0,0,0-9.71,3.18,32.3,32.3,0,0,0-10.3,11.28,42.79,42.79,0,0,0-5.61,17.4,37.16,37.16,0,0,0,3.31,20.42,33,33,0,0,0,11.88,13.27l.33.21c3.42,2.15,3.42,2.15,7.46,2.15h48.88c.65,0,1.29,0,1.94,0a8.84,8.84,0,0,0,8.27-8.7c0-.75,0-1.51,0-2.26V378.76a8.63,8.63,0,0,1,.13-2.39,61.31,61.31,0,0,1,10.23-.1c.06.35.16.73.2,1.11s0,.83,0,1.24q0,44.43,0,88.88a21.24,21.24,0,0,1-2.57,10.84c-3.63,6.31-8.89,9.81-15.93,10.07-.58,0-1.16,0-1.74,0H321.41a20.77,20.77,0,0,1-5.77-.53,20.09,20.09,0,0,1-14.12-16.4,26.89,26.89,0,0,1-.18-4.12q0-21.14,0-42.27v-46.2C301.34,378.08,301.36,377.26,301.37,376.35Z" />
        <path fill="white"
            d="M494.68,551.28a55.29,55.29,0,0,1-9.54,0,3.4,3.4,0,0,1-.22-2c0-5.5,0-11,0-16.5,0-.75,0-1.49-.07-2.3a3,3,0,0,0-.78-.23q-7.57,0-15.13,0a3.08,3.08,0,0,0-.71.15,3.35,3.35,0,0,0-.28,2.05c0,5.5,0,11,0,16.5,0,.74,0,1.48-.06,2.32a23.78,23.78,0,0,1-4.89.18,41.32,41.32,0,0,1-4.59-.06,4,4,0,0,1-.26-2.12q0-7.72,0-15.46,0-14.54,0-29.08c0-.74,0-1.48.07-2.31a12.14,12.14,0,0,1,3.15-.17q1.65,0,3.3,0a14.44,14.44,0,0,1,3.18.15c0,.74.1,1.4.1,2.07,0,4.61,0,9.21,0,13.82,0,.67.05,1.34.08,2,.29.12.46.26.64.26l15.32,0a3.53,3.53,0,0,0,.63-.14,2.68,2.68,0,0,0,.2-.27.87.87,0,0,0,.05-.19,1.62,1.62,0,0,0,0-.2c0-.14,0-.28,0-.42V377.3c0-.07,0-.14,0-.2a1.48,1.48,0,0,1,0-.21,1.42,1.42,0,0,1,0-.2c0-.07,0-.13.07-.3a1.89,1.89,0,0,1,.64-.24c2.78,0,5.56,0,8.34,0a2.18,2.18,0,0,1,.49.15,8,8,0,0,1,.19,1.08c0,.55,0,1.1,0,1.65q0,84.75,0,169.5C494.71,549.42,494.69,550.3,494.68,551.28Z" />
        <path fill="white"
            d="M182.47,292.43a10.93,10.93,0,0,1-.61,1.29c-6.21,9.22-14.4,15.19-25,17.31a51.55,51.55,0,0,1-15.63.51c-9.2-1-18-3.8-26.52-7.34A181.52,181.52,0,0,1,97.8,296c-.4-.22-.78-.48-1.16-.73,0,0,0-.13-.11-.29.53-.19,1.06-.39,1.59-.56,7.61-2.4,15.22-4.82,22.83-7.2a25.76,25.76,0,0,1,8.38-1.44,14.08,14.08,0,0,1,8.37,2.82,35.9,35.9,0,0,0,19.9,7.16,67.18,67.18,0,0,0,20.92-2.33Z" />
        <path fill="white"
            d="M380.91,551.21a48,48,0,0,1-9.86.08c-.54-2.1-1.1-4.27-1.67-6.45s-1-4.39-1.75-6.56H354.32c-.17.48-.39,1-.52,1.47q-1.37,5.37-2.72,10.74c-.06.26-.15.51-.22.73a48.34,48.34,0,0,1-9.66.09l-.07-.18a.46.46,0,0,1,0-.2q6-24,12-47.95a4.58,4.58,0,0,1,.29-.65,29.11,29.11,0,0,1,4.95-.14c1.68,0,3.36,0,5,0a46.77,46.77,0,0,1,5,.09,4.78,4.78,0,0,1,.36.8Q374.86,527.14,380.91,551.21Zm-24.48-21.83a35.72,35.72,0,0,0,9.07,0q-.75-3-1.48-6c-.48-1.92-.91-3.86-1.44-5.77a54,54,0,0,0-1.69-6.05C359.33,517.72,357.83,523.53,356.43,529.38Z" />
        <path fill="white"
            d="M269.22,502.39c1.39-.25,12.47-.32,15-.08a9.42,9.42,0,0,1,.48,1.24q5.46,21.68,10.9,43.37a26.75,26.75,0,0,1,1,4.36,61.6,61.6,0,0,1-9.63.09,55.42,55.42,0,0,1-1.75-6.41c-.6-2.17-1.11-4.37-1.65-6.52a107.71,107.71,0,0,0-13.55-.09c-1.29,4.23-2.14,8.66-3.39,12.91a48.9,48.9,0,0,1-9.68,0C257.13,549.48,268.55,504.08,269.22,502.39Zm3,27.05a47.6,47.6,0,0,0,9.1,0c-1.45-5.82-2.88-11.62-4.57-17.42C275.06,517.73,273.58,523.5,272.18,529.44Z" />
        <path fill="white"
            d="M433,551.47a23.26,23.26,0,0,1-9.34-1.68,22.66,22.66,0,0,1-2.12-1,3.74,3.74,0,0,1-2.1-3.24c-.11-1.71,0-3.43,0-5.14a1.52,1.52,0,0,1,0-.21c.31-1.62,1.08-2,2.53-1.28,1.28.65,2.52,1.39,3.81,2a15.53,15.53,0,0,0,8.31,1.5,8.34,8.34,0,0,0,3.14-1,4.56,4.56,0,0,0,.78-7.27,10.16,10.16,0,0,0-1.93-1.35c-1.16-.6-2.36-1.12-3.57-1.61a43.35,43.35,0,0,1-6.86-3.32,12,12,0,0,1-5.67-7.52c-1.33-5.58-.27-10.5,4-14.35a15.63,15.63,0,0,1,7.73-3.6,24.31,24.31,0,0,1,12.26.79,22,22,0,0,1,3,1.34,2.66,2.66,0,0,1,1.42,2.09,22.44,22.44,0,0,1,0,6c-.16,1.22-.86,1.63-1.95,1.2-.48-.19-.93-.49-1.4-.72A17.23,17.23,0,0,0,435,511a6.15,6.15,0,0,0-2.38.79,4.26,4.26,0,0,0-.68,6.77A11,11,0,0,0,434,520c1.29.64,2.63,1.15,3.94,1.73,1.9.85,3.83,1.65,5.69,2.59a13.34,13.34,0,0,1,4.07,3.12,12.28,12.28,0,0,1,3.12,7.78,16.22,16.22,0,0,1-1.31,7.82,13.54,13.54,0,0,1-7.25,6.79A21.61,21.61,0,0,1,433,551.47Z" />
        <path fill="white"
            d="M406.7,502.09a106.57,106.57,0,0,1,11.37,0c.26.64-.22,1-.47,1.47q-5,8.75-9.92,17.46c-1.41,2.47-2.79,5-4.24,7.39a5.52,5.52,0,0,0-.76,2.9c0,5.91-.14,11.82-.22,17.72,0,.68-.07,1.35-.11,2a45.48,45.48,0,0,1-9.52.14c-.43-.43-.27-1-.27-1.54.06-5.77.14-11.54.21-17.31,0-3.07.3-2.23-1.33-5q-6.81-11.5-13.64-23a9,9,0,0,1-1.06-2c.11-.19.13-.26.18-.29a.29.29,0,0,1,.18-.05l10.27,0a8.47,8.47,0,0,1,.86.1l9.06,17.55c.62-.25.76-.81,1-1.24q3.74-7.21,7.45-14.45C406,503.34,406.35,502.74,406.7,502.09Z" />
        <path fill="white"
            d="M316.86,377.77a11.62,11.62,0,0,1,.2-1.32,14.05,14.05,0,0,0,.41-4.08,6.29,6.29,0,0,0-6.22-6.49,9.58,9.58,0,0,0-5.35,1.57,8.69,8.69,0,0,0-3.81,4.22,13.57,13.57,0,0,1-3.26,4.56A10,10,0,0,1,292.9,379a21.23,21.23,0,0,1-4.58-.06c-.21-.53.14-.67.38-.87,1.45-1.14,2.94-2.23,4.34-3.45a13.83,13.83,0,0,0,2.13-2.38,4,4,0,0,0-.45-5.66,10.56,10.56,0,0,0-2.4-1.72c-1.62-.82-3.32-1.5-5.09-2.28a2.33,2.33,0,0,1,.28-.65,35.11,35.11,0,0,1,7.32-6.68A17.15,17.15,0,0,1,309.88,353a24.67,24.67,0,0,1,8.17,4.15,14.06,14.06,0,0,1,3.57,4,8.44,8.44,0,0,1,1.19,4.29,23.85,23.85,0,0,1-.48,6.14,19.39,19.39,0,0,1-1.18,3.25,5.36,5.36,0,0,1-3,2.77A6.55,6.55,0,0,1,316.86,377.77Z" />
        <path fill="white"
            d="M303.41,502h9.47a8.06,8.06,0,0,1,.18,1.21c0,2.33,0,4.66,0,7V551c-1.13.56-2.24.24-3.31.3s-2.07,0-3.1,0a16.36,16.36,0,0,1-3.33-.14c-.06-.52-.15-1-.16-1.45C302.89,537.24,303,504.07,303.41,502Z" />
        <path fill="white"
            d="M136,283.84l6.67-2.12,6.12-1.92a13.61,13.61,0,0,1,4.2-.66,7.14,7.14,0,0,1,4.38,1.41c4.13,3.16,8.8,4.07,13.77,3.81a37.19,37.19,0,0,0,7.83-1.27c.55-.16,1.11-.27,1.91-.45a9.6,9.6,0,0,1-.54,1.08,20.21,20.21,0,0,1-13.13,8.72,30.72,30.72,0,0,1-12.87-.65,73.53,73.53,0,0,1-17.67-7.18,3.41,3.41,0,0,1-.59-.49S136,284,136,283.84Z" />
        <path fill="white"
            d="M179.15,400c3.34-.21,7.29,2.6,7.29,7.63a7.4,7.4,0,0,1-7.12,7.66,7.54,7.54,0,0,1-7.32-7.68A7.42,7.42,0,0,1,179.15,400Z" />
        <path fill="white"
            d="M158.39,400c3.57-.11,7.1,3.05,7.16,7.58a7.24,7.24,0,1,1-14.43-.12C151.22,402.9,155,399.78,158.39,400Z" />
        <path fill="white"
            d="M234.65,509.83a7.28,7.28,0,0,1-7.22-7.5,7.22,7.22,0,1,1,14.4-.25C241.89,507,238,510,234.65,509.83Z" />
        <path fill="white"
            d="M255.58,509.83c-3.23.2-7.23-2.63-7.25-7.68a7.21,7.21,0,1,1,14.4.11C262.74,506.3,259.42,510,255.58,509.83Z" />
        <path fill="white"
            d="M175,390.3a7.32,7.32,0,0,1-7.12,7.61c-4.44,0-7.31-3.91-7.27-7.7a7.21,7.21,0,1,1,14.39.09Z" />
        <path fill="white"
            d="M320.35,528.21a1.61,1.61,0,0,1,.51-.17h16.88c.61,1.23.29,2.48.32,3.68a12.25,12.25,0,0,1-.14,3.47,2.77,2.77,0,0,1-.59.16H320.86a1.8,1.8,0,0,1-.51-.17A25.75,25.75,0,0,1,320.35,528.21Z" />
        <path fill="white"
            d="M182.94,276.67c-.46.71-.64,1.06-.88,1.35-3,3.66-6.8,4.8-11.16,4.3a35,35,0,0,1-12.79-4.53c-.1-.05-.15-.21-.24-.33.1-.43.49-.33.76-.42,2.1-.68,4.21-1.31,6.31-2a5.49,5.49,0,0,1,5.33.79,9.68,9.68,0,0,0,5.49,1.78,20,20,0,0,0,5.76-.63Z" />
    </g>
</svg>